<?xml version="1.0" standalone="no"?>
<!DOCTYPE svg PUBLIC "-//W3C//DTD SVG 20010904//EN"
 "http://www.w3.org/TR/2001/REC-SVG-20010904/DTD/svg10.dtd">
<svg version="1.0" xmlns="http://www.w3.org/2000/svg"
 width="260.000000pt" height="260.000000pt" viewBox="0 0 260.000000 260.000000"
 preserveAspectRatio="xMidYMid meet">
<metadata>
Created by potrace 1.11, written by Peter Selinger 2001-2013
</metadata>
<g transform="translate(0.000000,260.000000) scale(0.100000,-0.100000)"
fill="#000000" stroke="none">
<path d="M1290 1318 l0 -688 130 0 130 0 0 158 0 158 60 62 c33 34 62 62 64
62 2 0 59 -99 127 -220 l123 -220 143 0 144 0 -25 43 c-204 351 -336 582 -336
587 0 8 9 18 199 219 69 73 128 137 130 143 2 6 -59 8 -157 7 l-161 -3 -58
-65 c-32 -36 -96 -109 -142 -161 -46 -52 -90 -101 -96 -108 -10 -11 -12 51
-13 280 0 161 -1 325 -1 363 l-1 71 -130 -1 -130 0 0 -687z"/>
<path d="M665 1643 c-95 -12 -191 -53 -248 -107 -55 -51 -117 -195 -86 -197 8
0 21 -2 29 -3 8 -2 39 -7 67 -11 l52 -7 24 54 c47 104 99 132 243 132 96 0
160 -21 199 -64 22 -24 43 -115 35 -155 -5 -26 -11 -31 -60 -42 -30 -7 -131
-24 -224 -38 -129 -19 -184 -31 -230 -53 -107 -51 -165 -130 -174 -238 -9
-118 48 -218 156 -271 53 -26 65 -28 182 -27 144 0 195 15 302 88 l63 43 15
-56 15 -56 88 -3 c48 -1 87 -1 87 2 0 3 -5 17 -11 33 -27 66 -31 114 -34 403
-2 168 -6 321 -9 340 -15 111 -83 184 -201 217 -48 14 -217 23 -280 16z m314
-595 c-2 -100 -19 -153 -65 -206 -52 -62 -129 -95 -226 -98 -93 -4 -139 11
-180 57 -55 62 -49 149 13 202 37 32 79 46 179 62 101 16 202 37 236 49 22 8
40 15 42 15 2 1 2 -36 1 -81z"/>
</g>
</svg>
